<svg width="429.5" height="75.705" viewBox="0 0 429.5 75.705" xmlns="http://www.w3.org/2000/svg"><g id="svgGroup" stroke-linecap="round" fill-rule="evenodd" font-size="9pt" stroke="#ffffff" stroke-width="0.25mm" fill="#ffffff" style="stroke:#ffffff;stroke-width:0.25mm;fill:#ffffff"><path d="M 0 8.2 L 0 20 L 35.1 20 A 11.751 11.751 0 0 1 38.688 20.516 C 42.594 21.765 44.4 25.134 44.4 29 A 8.821 8.821 0 0 1 39.679 37.335 C 38.667 37.822 37.477 38.146 36.094 38.257 A 13.624 13.624 0 0 1 35 38.3 L 10.7 38.3 A 17.957 17.957 0 0 0 6.702 38.695 C 2.228 39.723 0.187 42.81 0.103 48.621 A 26.21 26.21 0 0 0 0.1 49 L 0.1 75.7 L 11.9 75.7 L 11.9 51.3 A 2.596 2.596 0 0 1 11.971 50.665 C 12.159 49.921 12.719 49.6 13.6 49.6 L 34.6 49.6 C 50.4 49.6 56.3 38.6 56.3 28.4 C 56.3 18.402 50.729 9.603 37.842 8.352 A 33.554 33.554 0 0 0 34.6 8.2 L 0 8.2 Z M 304.4 31.1 L 304.4 75.7 L 315 75.7 L 315 34.6 A 2.658 2.658 0 0 1 315.054 34.036 C 315.163 33.535 315.442 33.235 315.915 33.136 A 1.885 1.885 0 0 1 316.3 33.1 L 333.6 33.1 A 29.667 29.667 0 0 1 339.189 33.579 C 346.331 34.955 349.5 39.256 349.5 46 L 349.5 75.7 L 360.2 75.7 L 360.2 46 C 360.2 32.291 352.529 23.96 336.773 22.994 A 51.906 51.906 0 0 0 333.6 22.9 L 311.8 22.9 C 307.122 22.9 304.937 24.458 304.489 29.087 A 20.959 20.959 0 0 0 304.4 31.1 Z M 110.7 40.3 L 110.7 58.3 A 20.131 20.131 0 0 0 112.657 67.496 C 115.22 72.513 120.438 75.7 129.1 75.7 L 161.4 75.7 L 161.4 65.4 L 129.1 65.4 A 12.39 12.39 0 0 1 126.199 65.086 C 122.758 64.257 121.207 61.855 121.02 58.758 A 10.882 10.882 0 0 1 121 58.1 L 121 54.3 L 146.1 54.3 A 33.612 33.612 0 0 0 152.342 53.775 C 159.647 52.388 163.087 48.296 163.839 41.977 A 24.373 24.373 0 0 0 164 39.1 C 164 28.9 158.7 22.9 146.2 22.9 L 129.1 22.9 A 26.695 26.695 0 0 0 122.32 23.695 C 114.083 25.859 110.7 32.234 110.7 40.3 Z M 238.1 40.3 L 238.1 58.3 A 20.131 20.131 0 0 0 240.057 67.496 C 242.62 72.513 247.838 75.7 256.5 75.7 L 288.8 75.7 L 288.8 65.4 L 256.5 65.4 A 12.39 12.39 0 0 1 253.599 65.086 C 250.158 64.257 248.607 61.855 248.42 58.758 A 10.882 10.882 0 0 1 248.4 58.1 L 248.4 54.3 L 273.5 54.3 A 33.612 33.612 0 0 0 279.742 53.775 C 287.047 52.388 290.487 48.296 291.239 41.977 A 24.373 24.373 0 0 0 291.4 39.1 C 291.4 28.9 286.1 22.9 273.6 22.9 L 256.5 22.9 A 26.695 26.695 0 0 0 249.72 23.695 C 241.483 25.859 238.1 32.234 238.1 40.3 Z M 418.8 0 L 418.8 22.9 L 395.5 22.9 C 382.344 22.9 373.802 30.387 372.717 45.849 A 49.335 49.335 0 0 0 372.6 49.3 C 372.6 65.651 380.025 74.238 392.163 75.529 A 31.577 31.577 0 0 0 395.5 75.7 L 410.1 75.7 A 22.889 22.889 0 0 0 418.644 74.229 C 425.744 71.384 429.5 64.396 429.5 53.1 L 429.5 0 L 418.8 0 Z M 176.9 8.2 L 176.9 52.4 A 27.094 27.094 0 0 0 179.41 64.506 C 182.504 70.73 188.612 74.869 198.589 75.588 A 44.659 44.659 0 0 0 201.8 75.7 L 228.7 75.7 L 228.7 63.9 L 202.5 63.9 A 24.919 24.919 0 0 1 197.862 63.505 C 191.266 62.252 188.924 58.151 188.715 53.069 A 18.803 18.803 0 0 1 188.7 52.3 L 188.7 8.2 L 176.9 8.2 Z M 65.4 38.3 L 65.4 75.7 L 76 75.7 L 76 39.9 C 76 35.3 78.1 33.1 82.8 33.1 L 101.4 33.1 L 101.4 22.9 L 79.7 22.9 A 23.097 23.097 0 0 0 74.342 23.454 C 67.928 24.99 65.4 29.765 65.4 38.3 Z M 407 65.4 L 396.5 65.4 C 387.4 65.4 383.3 60.7 383.3 49.3 A 33.513 33.513 0 0 1 383.738 43.572 C 384.824 37.352 387.954 34.131 393.426 33.312 A 20.806 20.806 0 0 1 396.5 33.1 L 418.8 33.1 L 418.8 52.6 A 24.854 24.854 0 0 1 418.412 57.268 C 417.33 62.889 413.903 65.361 407.161 65.4 A 28.158 28.158 0 0 1 407 65.4 Z M 129.1 33.1 L 146.1 33.1 A 11.807 11.807 0 0 1 148.819 33.389 C 151.786 34.092 153.289 36.041 153.556 38.776 A 9.507 9.507 0 0 1 153.6 39.7 A 7.129 7.129 0 0 1 153.006 42.753 C 152.036 44.813 149.808 46 145.8 46 L 121 46 L 121 40.4 A 7.548 7.548 0 0 1 122.312 35.873 C 123.556 34.173 125.741 33.1 129.1 33.1 Z M 256.5 33.1 L 273.5 33.1 A 11.807 11.807 0 0 1 276.219 33.389 C 279.186 34.092 280.689 36.041 280.956 38.776 A 9.507 9.507 0 0 1 281 39.7 A 7.129 7.129 0 0 1 280.406 42.753 C 279.436 44.813 277.208 46 273.2 46 L 248.4 46 L 248.4 40.4 A 7.548 7.548 0 0 1 249.712 35.873 C 250.956 34.173 253.141 33.1 256.5 33.1 Z"/></g></svg>