<svg width="56.332" height="67.5" viewBox="0 0 56.332 67.5" xmlns="http://www.w3.org/2000/svg"><g id="svgGroup" stroke-linecap="round" fill-rule="evenodd" font-size="9pt" stroke="#000000" stroke-width="0.25mm" fill="#ffffff" style="stroke:#000000;stroke-width:0.25mm;fill:#ffffff"><path d="M 0 0 L 0 11.8 L 35.1 11.8 A 11.751 11.751 0 0 1 38.688 12.316 C 42.594 13.565 44.4 16.934 44.4 20.8 A 8.821 8.821 0 0 1 39.679 29.135 C 38.667 29.622 37.477 29.946 36.094 30.057 A 13.624 13.624 0 0 1 35 30.1 L 10.7 30.1 A 17.957 17.957 0 0 0 6.702 30.495 C 2.228 31.523 0.187 34.61 0.103 40.421 A 26.21 26.21 0 0 0 0.1 40.8 L 0.1 67.5 L 11.9 67.5 L 11.9 43.1 A 2.596 2.596 0 0 1 11.971 42.465 C 12.159 41.721 12.719 41.4 13.6 41.4 L 34.6 41.4 C 50.4 41.4 56.3 30.4 56.3 20.2 C 56.3 10.202 50.729 1.403 37.842 0.152 A 33.554 33.554 0 0 0 34.6 0 L 0 0 Z" vector-effect="non-scaling-stroke"/></g></svg>
